<svg xmlns="http://www.w3.org/2000/svg" width="176" height="284" viewBox="0 0 176 284">
    <g fill="#51DDEC" fill-rule="nonzero" opacity=".2">
        <path d="M148 12L40.692 52.34l11.67 19.038L0 104l85.206-26.036-8.779-14.201zM136 246l-78.495-43.18-3.723 16.616L15 198l50.262 46.462 2.792-12zM100.026 167.227H176L69.78 133l10.014 19.118-38.504-9.867 9.29 16.548L0 156.743 70.297 181l-3.716-10.792 36.232 4.933zM18.305 264.315L5 264.417 32.867 318 22.81 277.351 38 278.583 8.248 225zM38-32L1.328 16.028 15.527 18.3 0 56 34.833 9.315 21.758 6.113zM84-25L55.523 1.359l9.15 3.18L51 27 78.14 1.154 70.02-2.333zM116 91l-38.224 6.656 5.96 7.8L60 117l36.888-7.072-4.83-7.488zM91 298l-20.382-35.712-3.5 10.516L49 255l19.97 33.734 3.81-9.163z"/>
    </g>
</svg>
