<svg xmlns="http://www.w3.org/2000/svg" width="42" height="42" viewBox="0 0 42 42">
    <g fill="#FFF" fill-rule="nonzero">
        <path d="M21 13.809c-3.965 0-7.191 3.226-7.191 7.191s3.226 7.191 7.191 7.191 7.191-3.226 7.191-7.191-3.226-7.191-7.191-7.191zm0 13.151A5.967 5.967 0 0 1 15.04 21 5.968 5.968 0 0 1 21 15.04 5.968 5.968 0 0 1 26.96 21 5.968 5.968 0 0 1 21 26.96zM3.246 17.755A3.25 3.25 0 0 0 0 21a3.25 3.25 0 0 0 3.246 3.246A3.25 3.25 0 0 0 6.49 21a3.25 3.25 0 0 0-3.245-3.245zm0 5.26A2.017 2.017 0 0 1 1.23 21a2.017 2.017 0 0 1 2.014-2.015c1.113 0 2.016.902 2.017 2.015a2.017 2.017 0 0 1-2.015 2.015zm35.508-5.26A3.25 3.25 0 0 0 35.51 21a3.25 3.25 0 0 0 3.245 3.246A3.25 3.25 0 0 0 42 21a3.25 3.25 0 0 0-3.246-3.245zm0 5.26A2.017 2.017 0 0 1 36.74 21a2.017 2.017 0 0 1 2.014-2.015A2.017 2.017 0 0 1 40.77 21a2.017 2.017 0 0 1-2.015 2.015zM21 0a3.25 3.25 0 0 0-3.245 3.246A3.25 3.25 0 0 0 21 6.49a3.25 3.25 0 0 0 3.246-3.245A3.25 3.25 0 0 0 21 0zm0 5.26a2.017 2.017 0 0 1-2.015-2.014A2.017 2.017 0 0 1 21 1.23a2.017 2.017 0 0 1 2.015 2.015A2.017 2.017 0 0 1 21 5.261zm0 30.249a3.25 3.25 0 0 0-3.245 3.245A3.25 3.25 0 0 0 21 42a3.25 3.25 0 0 0 3.246-3.246A3.25 3.25 0 0 0 21 35.51v-.001zm0 5.26a2.017 2.017 0 0 1-2.015-2.014c.001-1.113.902-2.015 2.015-2.016a2.017 2.017 0 0 1 2.015 2.015A2.017 2.017 0 0 1 21 40.77zM10.74 6.152a3.224 3.224 0 0 0-2.294-.95 3.224 3.224 0 0 0-2.295.95 3.224 3.224 0 0 0-.95 2.295c0 .866.336 1.682.95 2.295.607.61 1.434.953 2.295.95a3.224 3.224 0 0 0 2.295-.95c.61-.608.953-1.434.95-2.295a3.224 3.224 0 0 0-.95-2.295zM9.87 9.87c-.38.38-.887.59-1.425.59a2.002 2.002 0 0 1-1.425-.59 2.002 2.002 0 0 1-.589-1.424c0-.538.21-1.045.59-1.425.378-.38.89-.592 1.425-.59.538 0 1.045.21 1.425.59a2 2 0 0 1 .59 1.424c0 .538-.21 1.045-.59 1.426L9.87 9.87zm25.979 21.39a3.224 3.224 0 0 0-2.295-.951 3.224 3.224 0 0 0-2.295.95 3.224 3.224 0 0 0-.95 2.295c0 .867.337 1.682.95 2.295.607.61 1.434.953 2.295.95a3.224 3.224 0 0 0 2.295-.95c.61-.607.953-1.434.95-2.295a3.224 3.224 0 0 0-.95-2.295zm-.87 3.72c-.38.38-.887.59-1.425.59a2.002 2.002 0 0 1-1.424-.591 2.002 2.002 0 0 1-.59-1.424c0-.538.21-1.045.59-1.426.377-.379.89-.591 1.424-.59.538 0 1.045.21 1.425.59.381.381.59.887.59 1.425s-.21 1.045-.59 1.425zm.87-28.829a3.224 3.224 0 0 0-2.295-.95 3.224 3.224 0 0 0-2.295.95 3.224 3.224 0 0 0-.95 2.295c0 .866.337 1.682.95 2.295.608.61 1.434.953 2.295.95a3.224 3.224 0 0 0 2.295-.95c.61-.607.953-1.434.95-2.295a3.224 3.224 0 0 0-.95-2.295zm-.87 3.72a2 2 0 0 1-1.424.59 2.002 2.002 0 0 1-1.426-.59 2.002 2.002 0 0 1-.59-1.425c0-.538.21-1.045.59-1.425.378-.38.89-.591 1.425-.59.538 0 1.045.21 1.425.59a2 2 0 0 1 .59 1.425c0 .538-.21 1.045-.59 1.425zM10.74 31.259a3.224 3.224 0 0 0-2.295-.95 3.224 3.224 0 0 0-2.295.95 3.224 3.224 0 0 0-.95 2.295c0 .867.336 1.682.95 2.295.607.61 1.434.953 2.295.95a3.224 3.224 0 0 0 2.295-.95c.61-.607.953-1.434.95-2.295a3.224 3.224 0 0 0-.95-2.295zm-.87 3.72c-.381.381-.887.59-1.425.59a2.002 2.002 0 0 1-1.425-.59 2.002 2.002 0 0 1-.59-1.424c0-.538.21-1.045.59-1.426.377-.379.89-.591 1.424-.59.538 0 1.045.21 1.426.59.38.381.59.887.59 1.425s-.21 1.045-.59 1.425zm1.923-14.594H8.506a.615.615 0 0 0 0 1.23h3.288a.616.616 0 1 0 0-1.23zm21.7 0h-3.288a.615.615 0 0 0 0 1.23h3.288a.616.616 0 1 0 0-1.23zM21 7.891a.615.615 0 0 0-.616.615v3.288a.615.615 0 1 0 1.23 0V8.506A.615.615 0 0 0 21 7.891zm0 21.7a.615.615 0 0 0-.616.615v3.288a.615.615 0 1 0 1.23 0v-3.288A.615.615 0 0 0 21 29.59z"/>
        <path d="M25.115 19.033a.616.616 0 0 0-1.11.53 3.336 3.336 0 0 1-.65 3.792 3.336 3.336 0 0 1-3.79.65.615.615 0 0 0-.531 1.111 4.567 4.567 0 0 0 5.19-.891 4.568 4.568 0 0 0 .891-5.192zm-2.149-2.15a4.568 4.568 0 0 0-5.19.892 4.569 4.569 0 0 0-.893 5.19.616.616 0 1 0 1.11-.53 3.336 3.336 0 0 1 .652-3.79 3.336 3.336 0 0 1 3.79-.651.616.616 0 0 0 .531-1.11zm-8.04-2.827L12.6 11.73a.616.616 0 0 0-.87.87l2.325 2.325a.614.614 0 0 0 .87 0c.24-.24.24-.63 0-.87zM30.27 29.4l-2.326-2.325a.616.616 0 0 0-.87.87L29.4 30.27a.614.614 0 0 0 .87 0c.24-.24.24-.63 0-.87zm0-17.67a.616.616 0 0 0-.87 0l-2.325 2.326a.615.615 0 1 0 .87.87L30.27 12.6a.615.615 0 0 0 0-.87zM14.926 27.075a.616.616 0 0 0-.87 0l-2.326 2.324a.615.615 0 1 0 .87.87l2.326-2.325c.24-.24.24-.629 0-.87z"/>
    </g>
</svg>
