<svg xmlns="http://www.w3.org/2000/svg" width="34" height="34" viewBox="0 0 34 34">
    <g fill="#FFF" fill-rule="nonzero">
        <path d="M16.99 0C7.595 0 0 7.595 0 16.99c0 9.394 7.595 16.99 16.99 16.99 9.394 0 16.99-7.596 16.99-16.99C33.98 7.595 26.383 0 16.99 0zm0 31.98c-8.195 0-14.991-6.795-14.991-14.99S8.795 1.999 16.989 1.999c8.196 0 14.992 6.796 14.992 14.99 0 8.196-6.796 14.992-14.991 14.992z"/>
        <path d="M21.387 15.19l-3.798 3.798c-.4.2-.8.2-1 0l-3.797-3.797c-.4-.4-1-.4-1.399 0-.4.4-.4 1 0 1.399l3.798 3.798c.4.6 1.2.8 1.799.8.6 0 1.399-.4 1.998-.8l3.798-3.798c.4-.4.4-1 0-1.4-.4-.399-1-.399-1.399 0z"/>
    </g>
</svg>
