<svg xmlns="http://www.w3.org/2000/svg" width="42" height="41" viewBox="0 0 42 41">
    <g fill="#FFF" fill-rule="nonzero">
        <path d="M36.772 37.39c.102-.649-.038-1.532-.582-2.043-.359-.337-.834-.465-1.338-.361-.546.104-.948 0-1.504-.146-.25-.065-.533-.14-.846-.194-.925-.164-1.427.214-1.644.453-.212.235-.53.756-.279 1.616.268.917.993 1.955 1.522 2.713l.116.166a2.513 2.513 0 0 0 2.052 1.088c.143 0 .287-.013.43-.039.916-.168 1.6-.83 1.833-1.771.068-.277.041-.527.022-.709-.005-.052-.013-.12-.013-.153l.032-.064c.064-.123.16-.31.2-.557zm-1.61-.266l-.041.08a1.705 1.705 0 0 0-.185.494c-.047.247-.023.47-.006.634.006.057.014.133.013.165-.1.393-.348.517-.54.552a.854.854 0 0 1-.842-.375l-.118-.17c-.465-.665-1.102-1.578-1.296-2.24a1.077 1.077 0 0 1-.009-.033.904.904 0 0 1 .079.01c.246.044.474.103.715.166.605.158 1.287.336 2.17.181.048.118.086.341.06.536zm6.622-17.075a9.314 9.314 0 0 1-.021-.512c0-.95-.042-1.732-.247-2.688-.005-.083.047-.31.082-.462.114-.492.269-1.166-.141-1.72-.361-.488-.91-.598-1.31-.677-.166-.033-.418-.083-.47-.144l-1.785-2.02c-.236-.266-.36-.583-.504-.95-.227-.58-.51-1.3-1.305-1.877l-.11-.08c-.946-.684-1.517-1.097-1.853-2.088a7.64 7.64 0 0 1-.197-.792c-.166-.767-.354-1.635-.919-2.246-.248-.269-.502-.418-.707-.538-.227-.133-.296-.178-.369-.32-.123-.238-.214-.535-.312-.85-.052-.174-.11-.348-.17-.52-.343-.96-.97-1.544-1.678-1.56-.364-.004-1.039.135-1.47 1.19-.42 1.027-.36 2.07-.304 2.99.042.718.082 1.397-.096 1.999-.025.086-.095.29-.197.326-.172.06-.606-.056-1.101-.395-.188-.128-.4-.254-.626-.388-.504-.299-1.264-.75-1.412-1.123-.01-.128.205-.502.32-.704.284-.496.636-1.113.448-1.784-.11-.397-.385-.72-.813-.959-.683-.38-1.595-.415-2.4-.445C21.83.7 21.56.69 21.352.666c-1.175-.144-2.419-.114-3.558 1.066-.184.192-.361.422-.548.666-.28.366-.802 1.047-1.09 1.054-.147.004-.343-.075-.57-.167-.373-.152-.84-.34-1.426-.294-.853.069-1.47.477-1.96.867-.749.595-1.468 1.241-2.164 1.867l-.236.212a9.757 9.757 0 0 1-.126.111c-.266.232-.597.52-.807.978-.159.346-.212.672-.254.934-.064.394-.093.491-.254.62-.293.235-.798.395-1.286.55-.21.066-.428.135-.631.212-.32.12-.66.233-1.019.352-1.786.594-4.008 1.332-4.735 3.553l-.127.378c-.265.778-.595 1.747-.56 2.628.037.893.527 1.626.96 2.273.15.221.29.43.396.625.371.674.376 1.26.383 2.001.004.436.009.93.097 1.468.054.322.181.593.284.81.082.177.16.343.147.428-.014.092-.152.292-.253.437-.143.206-.304.439-.41.716-.214.56-.112.986.011 1.245.316.664 1.056.913 1.65 1.113.107.036.213.072.316.11 1.502.553 2.576.058 3.524-.379.309-.141.627-.288.963-.403.458-.156.95-.186 1.472-.217.282-.017.572-.034.875-.072 1.125-.139 2.208-.552 3.41-1.3 1.458-.91 2.899-1.263 4.28-1.047 1.339.208 2.418.891 3.606 2.285.597.7 1.167 1.131 1.906 1.444.138.059.27.093.378.12.033.261.151.66.62.915.505.274.997.133 1.29.048.045-.013.104-.03.151-.041.08.131.166.438.221.632.117.414.25.883.551 1.262.6.753 1.446 1.235 2.513 1.433.092.016.172.03.24.04.05.008.11.017.14.024l.04.032c.029.043.08.148.116.219.154.31.365.734.822.94.19.086.385.13.574.13.273 0 .536-.09.76-.269.244-.194.388-.442.514-.661.052-.09.129-.223.17-.266.105-.065.136-.068.45.009.23.055.518.125.866.106.776-.041 1.183-.517 1.427-.801.171-.2.23-.258.321-.278.128-.03.255-.047.391-.066.512-.07 1.212-.166 1.765-.981.43-.632.423-1.307.418-1.85l-.001-.175c0-.467.068-.592.355-1.114l.057-.103a.81.81 0 0 0-.328-1.1.82.82 0 0 0-1.107.326l-.055.102c-.322.585-.555 1.009-.555 1.89v.188c.005.444 0 .726-.138.93-.137.202-.2.222-.635.281-.157.023-.335.047-.533.092-.631.144-.973.544-1.2.808-.196.229-.213.23-.27.233-.108.006-.232-.025-.39-.063-.406-.098-1.018-.246-1.733.211a1.894 1.894 0 0 0-.563.6 1.819 1.819 0 0 0-.374-.514c-.389-.355-.667-.42-1.047-.48l-.198-.034c-.677-.125-1.177-.401-1.53-.845-.1-.123-.185-.426-.26-.694-.15-.525-.334-1.18-.887-1.565-.529-.368-1.066-.266-1.404-.175a1.128 1.128 0 0 0-.269-.48c-.295-.314-.648-.404-.882-.464a1.488 1.488 0 0 1-.15-.043c-.51-.215-.862-.487-1.3-1-.973-1.141-2.374-2.493-4.6-2.84-1.783-.276-3.599.152-5.401 1.276-1.006.627-1.852.955-2.743 1.065-.252.031-.504.047-.772.063-.608.036-1.236.074-1.904.301-.416.142-.79.314-1.12.467-.846.39-1.405.647-2.269.328a13.8 13.8 0 0 0-.359-.125c-.197-.066-.507-.17-.655-.258.038-.093.133-.23.224-.362.202-.291.453-.653.523-1.115.086-.568-.127-1.022-.282-1.353-.07-.147-.135-.286-.152-.388-.068-.415-.072-.807-.076-1.22-.008-.813-.016-1.733-.583-2.764a10.16 10.16 0 0 0-.468-.745c-.33-.493-.671-1.002-.689-1.442-.023-.58.241-1.358.475-2.043l.134-.396c.472-1.444 2.04-1.965 3.7-2.517.362-.118.721-.242 1.078-.374.163-.061.35-.12.55-.184.602-.19 1.284-.406 1.815-.832.662-.53.765-1.162.84-1.622.033-.2.06-.374.129-.523.061-.133.19-.25.396-.429.049-.042.098-.084.146-.128l.237-.213c.678-.609 1.378-1.24 2.087-1.802.44-.35.73-.49 1.072-.517.188-.015.38.057.677.178.33.134.74.3 1.232.287 1.07-.028 1.777-.952 2.345-1.693a6.83 6.83 0 0 1 .428-.526c.552-.572 1.081-.713 2.178-.579.276.034.58.045.901.057.59.022 1.324.05 1.663.24l.014.007a4.31 4.31 0 0 1-.269.522c-.31.54-.732 1.281-.429 2.074.344.9 1.32 1.48 2.103 1.944.202.12.394.233.537.332.538.368 1.588.934 2.574.587.41-.145.954-.504 1.218-1.397.258-.873.207-1.726.159-2.55-.048-.805-.094-1.565.169-2.242.038.071.079.158.114.259.051.141.098.293.148.455.114.367.232.747.42 1.111.291.566.696.804.991.977.145.085.25.147.335.239.264.285.403.925.525 1.49.07.328.144.666.246.969.502 1.48 1.4 2.13 2.439 2.88l.11.08c.41.298.55.657.745 1.155.175.446.373.951.798 1.432l1.785 2.02c.418.473.972.584 1.378.664.077.015.18.036.258.057-.02.13-.047.26-.079.39-.082.355-.175.758-.089 1.154.178.823.213 1.487.213 2.357 0 .197.012.404.024.605.023.399.049.851-.035 1.121a.81.81 0 0 0 .539 1.013.817.817 0 0 0 1.021-.535c.17-.548.136-1.156.105-1.692z"/>
        <path d="M39.948 23.24a.822.822 0 0 0-1.108.327l-.006.011-.003.006-.003.006-.007.01a.811.811 0 0 0 .327 1.102.83.83 0 0 0 .39.097c.27 0 .55-.131.718-.424l.006-.011.003-.006.003-.006.007-.011a.811.811 0 0 0-.327-1.101z"/>
    </g>
</svg>
