<svg xmlns="http://www.w3.org/2000/svg" width="42" height="42" viewBox="0 0 42 42">
    <g fill="#FFF" fill-rule="nonzero">
        <path d="M39.22 2.73c-3.711-3.64-9.754-3.64-13.468 0l-7.295 7.146a.765.765 0 0 0 .021 1.077.808.808 0 0 0 1.102.022l7.295-7.146c1.492-1.462 3.484-2.267 5.61-2.267 2.128 0 4.12.806 5.612 2.268a7.64 7.64 0 0 1 2.315 5.498 7.636 7.636 0 0 1-2.315 5.496l-9.538 9.348c-3.094 3.031-8.13 3.031-11.225 0a.808.808 0 0 0-1.102.022.765.765 0 0 0-.02 1.077A9.596 9.596 0 0 0 22.946 28a9.595 9.595 0 0 0 6.734-2.728l9.54-9.348A9.166 9.166 0 0 0 42 9.327c0-2.5-.987-4.842-2.78-6.597z"/>
        <path d="M21.178 32.112l-6.137 6.059a7.888 7.888 0 0 1-5.581 2.271 7.89 7.89 0 0 1-5.58-2.271 7.728 7.728 0 0 1 0-11.016l8.928-8.812c3.077-3.036 8.084-3.034 11.16 0a.793.793 0 0 0 1.116 0 .77.77 0 0 0 0-1.101c-3.69-3.645-9.7-3.646-13.392 0l-8.929 8.813A9.217 9.217 0 0 0 0 32.664c0 2.504.982 4.85 2.764 6.608A9.469 9.469 0 0 0 9.459 42c2.537 0 4.915-.969 6.696-2.727l6.138-6.059a.77.77 0 0 0 0-1.102.793.793 0 0 0-1.115 0zm5.437 2.856c-.36 0-.65.357-.65.798v4.796c0 .441.29.798.649.798.36 0 .65-.357.65-.798v-4.796c0-.441-.29-.798-.65-.798zm4.016-1.04a.84.84 0 0 0-1.176 0 .81.81 0 0 0 0 1.16l3.529 3.475a.836.836 0 0 0 1.176 0 .812.812 0 0 0 0-1.158l-3.53-3.476zm5.557-3.436H31.32c-.448 0-.811.285-.811.64 0 .353.362.638.81.638h4.87c.448 0 .811-.285.811-.639 0-.354-.363-.64-.81-.64h-.002zM12.334 9.393c.358 0 .648-.357.648-.799V3.8c0-.442-.29-.799-.648-.799-.36 0-.65.357-.65.799v4.795c0 .442.29.799.65.799zm-2.72 1.039a.836.836 0 0 0 1.177 0 .812.812 0 0 0 0-1.159L7.262 5.797a.84.84 0 0 0-.803-.212.825.825 0 0 0-.588.58.81.81 0 0 0 .215.79l3.529 3.477zm-5.557 2.797h4.868c.45 0 .812-.286.812-.639 0-.354-.363-.64-.811-.64h-4.87c-.448 0-.81.286-.81.64 0 .353.362.639.81.639h.001z"/>
    </g>
</svg>
