<svg xmlns="http://www.w3.org/2000/svg" width="65" height="63" viewBox="0 0 65 63">
    <defs>
        <linearGradient id="a" x1="50%" x2="50%" y1="0%" y2="100%">
            <stop offset="0%" stop-color="#9150E3"/>
            <stop offset="100%" stop-color="#C86DD7"/>
        </linearGradient>
    </defs>
    <g fill="none" fill-rule="evenodd">
        <path d="M0-1h65v65H0z"/>
        <path fill="url(#a)" fill-rule="nonzero" d="M56.336 57.837l.006.06c.047.453.044.779-.052 1.165-.394 1.587-1.57 2.717-3.135 3.001a4.086 4.086 0 0 1-.732.066 4.265 4.265 0 0 1-3.479-1.828l-.174-.248c-.374-.532-.552-.79-.774-1.124a17.485 17.485 0 0 1-1.02-1.707 7.927 7.927 0 0 1-.559-1.357c-.362-1.23-.089-2.2.526-2.873.625-.686 1.594-1.06 2.91-.828.299.052.59.117.931.202.11.027.193.048.377.096 1.07.278 1.438.326 2.04.212.909-.186 1.781.048 2.436.66.872.814 1.222 2.22 1.023 3.476-.04.254-.115.486-.219.716a4.271 4.271 0 0 1-.113.232l.008.079zm-3.047-1.753c-.946.106-1.716-.014-2.995-.345a56.99 56.99 0 0 0-.28-.072c.125.247.28.519.463.815.143.231.302.476.481.741.176.261.32.467.621.896l.177.252c.205.293.519.408.781.36.192-.034.327-.14.409-.403a4.435 4.435 0 0 0-.005-.057l-.003-.03-.006-.05c-.048-.454-.053-.727.015-1.087a2.69 2.69 0 0 1 .212-.645c.034-.072.06-.124.112-.224.01-.017.01-.019.017-.033a1.218 1.218 0 0 0 .001-.118zm10.87-25.976c0 .175.007.34.03.735.077 1.31.057 1.946-.178 2.698a1.714 1.714 0 0 1-2.138 1.117 1.69 1.69 0 0 1-1.13-2.12c.062-.2.077-.554.052-1.095-.004-.102-.01-.2-.019-.356-.03-.504-.039-.721-.039-.98 0-1.442-.073-2.33-.308-3.41a2.654 2.654 0 0 1-.04-.24c-.06-.487-.007-.907.153-1.602l.045-.191c-.482-.097-.749-.168-1.08-.305a3.148 3.148 0 0 1-1.17-.821l-2.681-3.014c-.576-.647-.856-1.189-1.287-2.28a22.344 22.344 0 0 0-.14-.35c-.248-.6-.443-.89-.811-1.156l-.165-.118c-2.309-1.66-3.162-2.556-3.837-4.535a10.81 10.81 0 0 1-.31-1.152 56.25 56.25 0 0 1-.075-.346c-.263-1.207-.429-1.738-.669-1.995-.065-.07-.138-.12-.392-.268-.37-.216-.564-.342-.804-.548a3.612 3.612 0 0 1-.871-1.104 7.52 7.52 0 0 1-.414-.976c0 .365.018.804.05 1.345.115 1.918.085 2.822-.257 3.97-.384 1.294-1.162 2.063-2.133 2.403-1.403.491-2.899.018-4.297-.932a14.177 14.177 0 0 0-.78-.478c-2.006-1.182-2.884-1.898-3.364-3.143-.398-1.032-.177-1.973.477-3.157.056-.103.102-.182.2-.352l.148-.261a8.068 8.068 0 0 0-1.127-.127 33.964 33.964 0 0 0-.733-.032c-.724-.027-1.028-.045-1.393-.089-1.508-.183-2.153-.013-2.864.72-.134.137-.273.31-.607.743-1.473 1.91-2.37 2.673-3.891 2.714-.61.016-1.139-.108-1.802-.366a19.59 19.59 0 0 1-.244-.098c-.48-.193-.652-.243-.795-.232-.404.032-.757.201-1.348.668a53.273 53.273 0 0 0-2.38 2.019c-.204.18-.364.323-.731.65l-.356.318c-.065.059-.128.114-.224.196-.33.286-.432.391-.472.478-.061.132-.093.272-.155.653-.208 1.266-.51 1.982-1.439 2.721-.722.574-1.41.861-2.881 1.325-.424.133-.607.193-.802.266-.444.166-.819.293-1.636.563l-.24.08c-3.258 1.078-4.496 1.811-5.008 3.365-.052.159-.09.272-.202.597-.526 1.534-.712 2.24-.686 2.87.016.415.259.872.95 1.898l.128.19c.265.394.439.67.598.958.753 1.359.918 2.379.936 4.351.004.44.008.632.02.867.014.321.042.604.088.88.01.061.058.176.187.45.06.126.087.185.122.263.319.712.452 1.323.343 2.034-.083.552-.3 1.024-.658 1.565-.06.09-.107.158-.208.304.11.09.209.123.403.188.277.092.4.135.552.19.957.35 1.456.248 3.037-.476.789-.36 1.191-.531 1.728-.713.887-.3 1.559-.39 2.985-.475.578-.035.827-.053 1.13-.09 1.263-.155 2.468-.62 3.922-1.52 2.8-1.734 5.642-2.4 8.437-1.97 2.96.458 5.08 1.929 7.201 4.398.612.712 1.081 1.071 1.77 1.36.857.22 1.277.406 1.717.87.143.15.259.314.349.487.748-.133 1.414-.039 2.086.426.593.41.975.99 1.26 1.766.089.242.147.433.261.834l.057.198c.11.376.196.605.245.666.454.565 1.101.92 2.009 1.087.086.016.138.025.283.047.802.126 1.236.303 1.823.838.098.089.186.182.269.284.165-.178.345-.33.552-.462 1.01-.642 1.794-.663 2.975-.378.182.044.287.066.357.076a7.26 7.26 0 0 0 .155-.175c.657-.763 1.164-1.158 2.06-1.361.263-.06.456-.09.843-.144.549-.075.514-.06.619-.214.102-.15.13-.386.124-1.106a25.81 25.81 0 0 1-.002-.288c0-1.217.199-1.799.892-3.053l.084-.15a1.72 1.72 0 0 1 2.316-.68 1.685 1.685 0 0 1 .688 2.302l-.086.154c-.281.509-.353.653-.406.822-.048.153-.067.316-.067.606l.002.254c.01 1.025-.039 1.56-.289 2.225a3.8 3.8 0 0 1-.423.813c-.774 1.132-1.569 1.477-2.984 1.67a5.913 5.913 0 0 0-.546.09c.01-.002-.023.028-.222.259-.75.87-1.379 1.305-2.484 1.363-.437.024-.81-.024-1.288-.135-.306-.074-.38-.094-.415-.104-.076.123-.095.156-.134.223-.328.563-.527.836-.892 1.124-.42.33-.917.504-1.441.504a2.59 2.59 0 0 1-1.06-.235c-.499-.223-.864-.584-1.167-1.071a6.21 6.21 0 0 1-.302-.557l-.073-.144c-.183-.03-.267-.044-.387-.066-1.712-.315-3.086-1.093-4.063-2.311-.293-.366-.505-.785-.685-1.302a12.286 12.286 0 0 1-.23-.75c-.052-.182-.078-.27-.112-.38-.856.098-1.445.1-2.147-.28-.627-.338-.972-.827-1.12-1.402a3.245 3.245 0 0 1-.338-.121c-1.18-.496-2.096-1.186-3.04-2.285-1.715-1.996-3.235-2.953-5.122-3.244-1.952-.302-3.999.195-6.095 1.493-1.862 1.153-3.554 1.794-5.316 2.01-.391.048-.69.07-1.345.11-1.105.066-1.568.125-2.083.299-.398.135-.714.27-1.4.583-2.334 1.068-3.645 1.315-5.66.578-.107-.04-.21-.075-.396-.137-.42-.14-.587-.2-.798-.282-.99-.387-1.655-.872-2.028-1.65-.304-.636-.356-1.397-.031-2.24.15-.39.314-.662.67-1.172l.109-.156c.134-.201.193-.31.19-.292-.007.043-.068-.116-.181-.356-.268-.565-.39-.885-.465-1.337-.115-.696-.143-1.226-.152-2.264-.01-.971-.035-1.353-.147-1.816a3.695 3.695 0 0 0-.368-.938 11.837 11.837 0 0 0-.572-.897C.945 27.287.539 26.45.489 25.23a6.62 6.62 0 0 1 .099-1.364c.11-.661.294-1.324.581-2.185.052-.157.094-.278.186-.547.1-.292.14-.41.189-.558.789-2.394 2.592-3.824 5.512-4.944.54-.207.973-.356 1.906-.664.387-.128.538-.178.735-.245.297-.1.546-.189.777-.275.264-.098.486-.172.972-.324 1.043-.329 1.475-.498 1.774-.737.11-.087.122-.115.205-.624.11-.672.2-1.042.42-1.516.295-.643.638-1.021 1.334-1.623l.184-.16.354-.317c1.59-1.42 2.326-2.058 3.27-2.803 1.064-.84 2-1.3 3.206-1.396.82-.065 1.388.079 2.362.472.408.164.572.217.662.214.11-.003.624-.554 1.264-1.383.424-.55.61-.778.86-1.036 1.596-1.643 3.302-2.03 5.746-1.734.234.028.492.043 1.055.064 2.026.076 2.934.206 3.874.727.75.416 1.248.999 1.452 1.723.257.908.033 1.699-.568 2.77a25.92 25.92 0 0 1-.151.264c-.183.319-.338.619-.395.73.203.295.804.712 1.86 1.335a21.087 21.087 0 0 1 .966.596c.522.354 1.027.536 1.187.536-.04-.01.006-.107.025-.17.202-.679.215-1.297.124-2.815-.115-1.934-.079-2.908.281-4.085.061-.2.131-.395.21-.588C43.62 1.083 44.6.48 45.676.492c1.29.029 2.388 1.043 2.966 2.648.08.224.14.406.26.795l.067.211c.15.473.252.749.371.979.047.09.062.103.367.28.536.312.826.518 1.173.892.78.839 1.088 1.7 1.497 3.577.136.627.198.883.281 1.127.394 1.153.835 1.605 2.606 2.878l.167.12c1.075.774 1.542 1.533 2.126 3.012.289.732.421.998.668 1.275l2.68 3.013c-.053-.06.082-.015.202.012l.237.049c.445.088.671.143.958.249.531.197.968.497 1.302.945.619.83.614 1.595.296 2.966l-.04.17c-.051.238-.07.36-.081.314.287 1.326.38 2.445.38 4.104zm-3.21 5.523c.523.28.844.967.49 1.642l-.01.017c0 .003-.002.005-.003.008h-.001a.234.234 0 0 1-.004.008l-.01.018a1.227 1.227 0 0 1-1.078.632c-.206 0-.41-.05-.586-.145a1.203 1.203 0 0 1-.489-1.642l.009-.017.004-.008.005-.008.01-.017a1.238 1.238 0 0 1 1.663-.488z"/>
    </g>
</svg>
