<svg xmlns="http://www.w3.org/2000/svg" width="59" height="55" viewBox="0 0 59 55">
    <defs>
        <linearGradient id="a" x1="50%" x2="50%" y1="0%" y2="100%">
            <stop offset="0%" stop-color="#9150E3"/>
            <stop offset="100%" stop-color="#C86DD7"/>
        </linearGradient>
    </defs>
    <g fill="none" fill-rule="evenodd">
        <path d="M-3-5h65v65H-3z"/>
        <path fill="url(#a)" fill-rule="nonzero" d="M56.728 4.787a2.115 2.115 0 0 1 1.63 2.51l-2.602 12.098a2.114 2.114 0 0 1-1.896 1.664 2.124 2.124 0 0 1-.622-.04L41.1 18.427a2.114 2.114 0 1 1 .889-4.135l7.07 1.51A23.339 23.339 0 0 0 28.882 4.229c-12.864 0-23.33 10.431-23.33 23.253 0 1.168-.95 2.114-2.12 2.114a2.117 2.117 0 0 1-2.121-2.114C1.31 12.328 13.678 0 28.88 0a27.58 27.58 0 0 1 23.787 13.58l1.541-7.169a2.12 2.12 0 0 1 2.519-1.624zM54.376 24.62a2.11 2.11 0 0 1 2.18 2.04c.242 7.324-2.384 14.304-7.395 19.654-5.01 5.35-11.805 8.429-19.133 8.671A27.441 27.441 0 0 1 5.95 42.276l-1.799 6.706a2.113 2.113 0 0 1-4.078-1.094l3.2-11.93a2.11 2.11 0 0 1 2.586-1.492l11.937 3.199a2.11 2.11 0 1 1-1.094 4.077l-7.34-1.967a23.226 23.226 0 0 0 20.526 10.992 23.08 23.08 0 0 0 16.19-7.338 23.055 23.055 0 0 0 6.257-16.63 2.11 2.11 0 0 1 2.041-2.179z"/>
    </g>
</svg>
