<svg xmlns="http://www.w3.org/2000/svg" width="60" height="60" viewBox="0 0 60 60">
    <defs>
        <linearGradient id="a" x1="50%" x2="50%" y1="0%" y2="100%">
            <stop offset="0%" stop-color="#9150E3"/>
            <stop offset="100%" stop-color="#C86DD7"/>
        </linearGradient>
    </defs>
    <g fill="none" fill-rule="evenodd">
        <path d="M-3-2h65v65H-3z"/>
        <path fill="url(#a)" fill-rule="nonzero" d="M48.924 40.781h-9.23c-2.164 0-3.924 1.788-3.924 3.985s1.76 3.984 3.923 3.984h9.23c2.164 0 3.924-1.787 3.924-3.984s-1.76-3.985-3.923-3.985zm0 5.625h-9.23c-.892 0-1.616-.736-1.616-1.64 0-.905.724-1.641 1.615-1.641h9.23c.892 0 1.616.736 1.616 1.64 0 .905-.724 1.641-1.615 1.641zm4.384-13.125c3.181 0 5.77 2.629 5.77 5.86v11.25c0 3.23-2.589 5.859-5.77 5.859h-.461v2.578c0 .647-.517 1.172-1.154 1.172h-9.23a1.163 1.163 0 0 1-1.154-1.172V56.25H17.77v2.578c0 .647-.516 1.172-1.154 1.172h-9.23a1.163 1.163 0 0 1-1.154-1.172V56.25H5.77C2.589 56.25 0 53.62 0 50.39V39.141c0-3.231 2.588-5.86 5.77-5.86h4.384c.637 0 1.154.525 1.154 1.172 0 .647-.517 1.172-1.154 1.172H5.77c-1.91 0-3.462 1.577-3.462 3.516v11.25c0 1.938 1.553 3.515 3.462 3.515h47.537c1.909 0 3.462-1.577 3.462-3.516V39.141c0-1.939-1.553-3.516-3.462-3.516H19.847a1.163 1.163 0 0 1-1.154-1.172c0-.647.517-1.172 1.154-1.172h23.308v-9.99c0-.647.516-1.172 1.154-1.172.637 0 1.153.525 1.153 1.172v9.99h7.846zM15.462 57.656V56.25H8.54v1.406h6.923zm35.077 0V56.25h-6.923v1.406h6.923zM15.961 33.625c.215.218.338.52.338.828 0 .308-.123.61-.338.829a1.154 1.154 0 0 1-.816.343c-.303 0-.601-.125-.816-.343a1.19 1.19 0 0 1-.338-.829c0-.308.124-.61.338-.828.215-.218.513-.344.816-.344.304 0 .601.126.816.344zm3.886 7.156c2.163 0 3.923 1.788 3.923 3.985s-1.76 3.984-3.923 3.984c-2.163 0-3.923-1.787-3.923-3.984s1.76-3.985 3.923-3.985zm0 5.625c.89 0 1.615-.736 1.615-1.64 0-.905-.724-1.641-1.615-1.641-.89 0-1.615.736-1.615 1.64 0 .905.724 1.641 1.615 1.641zm-9.692-5.625c2.163 0 3.923 1.788 3.923 3.985s-1.76 3.984-3.923 3.984c-2.163 0-3.923-1.787-3.923-3.984s1.76-3.985 3.923-3.985zm0 5.625c.89 0 1.615-.736 1.615-1.64 0-.905-.724-1.641-1.615-1.641s-1.616.736-1.616 1.64c0 .905.725 1.641 1.616 1.641zm19.384-5.625c2.164 0 3.923 1.788 3.923 3.985s-1.76 3.984-3.923 3.984c-2.163 0-3.923-1.787-3.923-3.984s1.76-3.985 3.923-3.985zm0 5.625c.891 0 1.616-.736 1.616-1.64 0-.905-.725-1.641-1.616-1.641-.89 0-1.615.736-1.615 1.64 0 .905.725 1.641 1.615 1.641zM47.735 7.473c1.89 1.919 1.89 5.041 0 6.96a4.777 4.777 0 0 1-3.426 1.442 4.777 4.777 0 0 1-3.427-1.442c-1.89-1.919-1.89-5.041 0-6.96a4.778 4.778 0 0 1 3.427-1.442c1.294 0 2.511.512 3.426 1.442zm-1.632 5.303a2.61 2.61 0 0 0 0-3.646 2.502 2.502 0 0 0-1.794-.755c-.678 0-1.316.268-1.795.755a2.61 2.61 0 0 0 0 3.646c.479.487 1.117.755 1.795.755.678 0 1.315-.268 1.794-.755zM51 4.158c3.689 3.747 3.689 9.843 0 13.59a1.141 1.141 0 0 1-1.632 0c-.45-.458-.45-1.2 0-1.658 2.79-2.832 2.79-7.442 0-10.275-.45-.457-.45-1.2 0-1.657a1.141 1.141 0 0 1 1.632 0zM39.25 5.815c-2.79 2.833-2.79 7.443 0 10.275.45.458.45 1.2 0 1.658a1.141 1.141 0 0 1-1.632 0c-3.689-3.747-3.689-9.843 0-13.59a1.141 1.141 0 0 1 1.632 0c.45.457.45 1.2 0 1.657zM54.755.343c5.76 5.85 5.76 15.37 0 21.22a1.141 1.141 0 0 1-1.632 0c-.45-.458-.45-1.2 0-1.658 4.86-4.936 4.86-12.968 0-17.904-.45-.458-.45-1.2 0-1.658a1.141 1.141 0 0 1 1.632 0zM35.494 19.905c.45.458.45 1.2 0 1.657a1.141 1.141 0 0 1-1.632 0c-5.76-5.85-5.76-15.369 0-21.219a1.141 1.141 0 0 1 1.632 0c.45.458.45 1.2 0 1.658-4.86 4.936-4.86 12.968 0 17.904zm9.63-1.544c.215.218.338.52.338.828 0 .309-.123.611-.338.829a1.154 1.154 0 0 1-.815.343c-.304 0-.602-.125-.816-.343a1.19 1.19 0 0 1-.338-.829c0-.308.123-.61.338-.828.214-.218.512-.343.816-.343.303 0 .6.125.815.343z"/>
    </g>
</svg>
