<svg xmlns="http://www.w3.org/2000/svg" width="65" height="33" viewBox="0 0 65 33">
    <defs>
        <linearGradient id="a" x1="50%" x2="50%" y1="0%" y2="100%">
            <stop offset="0%" stop-color="#9150E3"/>
            <stop offset="100%" stop-color="#C86DD7"/>
        </linearGradient>
    </defs>
    <g fill="none" fill-rule="evenodd">
        <path d="M0-16h65v65H0z"/>
        <path fill="url(#a)" fill-rule="nonzero" d="M60.503 4.497C57.562 1.555 53.498 0 48.75 0c-9.695 0-14.396 7.98-18.544 15.021-3.92 6.654-7.306 12.4-13.956 12.4-6.891 0-11.172-4.28-11.172-11.171 0-6.891 4.281-11.172 11.172-11.172 2.947 0 5.61 1.181 8.145 3.61a2.539 2.539 0 1 0 3.514-3.665C24.433 1.69 20.51 0 16.25 0 11.503 0 7.438 1.555 4.497 4.497 1.555 7.438 0 11.503 0 16.25s1.555 8.812 4.497 11.753C7.438 30.945 11.503 32.5 16.25 32.5c7.808 0 12.35-5.29 15.995-11.035.591 1.003 1.31 2.099 2.16 3.196C38.382 29.79 43.342 32.5 48.75 32.5c1.867 0 3.65-.246 5.302-.73a2.539 2.539 0 1 0-1.428-4.873c-1.188.348-2.491.525-3.874.525-7.695 0-12.12-8.168-13.442-11.054 3.665-6.18 7.068-11.29 13.442-11.29 6.891 0 11.172 4.281 11.172 11.172 0 1.55-.217 2.99-.644 4.28a2.539 2.539 0 0 0 4.82 1.597c.599-1.806.902-3.783.902-5.877 0-4.748-1.555-8.812-4.497-11.753z"/>
    </g>
</svg>
