<svg xmlns="http://www.w3.org/2000/svg" width="65" height="65" viewBox="0 0 65 65">
    <defs>
        <linearGradient id="a" x1="50%" x2="50%" y1="0%" y2="100%">
            <stop offset="0%" stop-color="#9150E3"/>
            <stop offset="100%" stop-color="#C86DD7"/>
        </linearGradient>
    </defs>
    <path fill="url(#a)" fill-rule="nonzero" d="M11.143 32.243c0-2.993-2.448-5.388-5.318-5.388-2.87 0-5.234 2.48-5.234 5.388s2.448 5.389 5.318 5.389c2.955 0 5.234-2.395 5.234-5.389zm-5.234 2.652c-1.435 0-2.617-1.198-2.617-2.652 0-1.454 1.182-2.565 2.617-2.565s2.617 1.197 2.617 2.65c0 1.455-1.182 2.567-2.617 2.567zm53.097-7.954c-2.954 0-5.318 2.48-5.318 5.388 0 2.993 2.448 5.388 5.318 5.388 2.955 0 5.319-2.48 5.319-5.388 0-2.993-2.364-5.388-5.319-5.388zm0 7.954c-1.435 0-2.616-1.198-2.616-2.652 0-1.454 1.181-2.65 2.616-2.65 1.436 0 2.617 1.196 2.617 2.65s-1.266 2.652-2.617 2.652zM32.416 10.69c2.954 0 5.318-2.48 5.318-5.388A5.313 5.313 0 0 0 32.416 0c-2.955 0-5.319 2.48-5.319 5.388 0 2.994 2.364 5.303 5.319 5.303zm0-7.954c1.435 0 2.616 1.197 2.616 2.651 0 1.454-1.181 2.651-2.616 2.651s-2.533-1.282-2.533-2.65c0-1.455 1.182-2.652 2.533-2.652zm0 51.06c-2.955 0-5.319 2.48-5.319 5.387 0 2.908 2.448 5.388 5.319 5.388 2.954 0 5.318-2.48 5.318-5.388s-2.364-5.388-5.318-5.388zm0 7.953c-1.435 0-2.617-1.197-2.617-2.651 0-1.454 1.182-2.652 2.617-2.652s2.616 1.198 2.616 2.652c0 1.454-1.181 2.651-2.616 2.651zm-18.74-43.105c1.434 0 2.7-.513 3.798-1.625 1.013-1.027 1.604-2.31 1.604-3.849 0-1.454-.591-2.737-1.604-3.849-.929-1.026-2.28-1.625-3.799-1.625-1.435 0-2.701.514-3.798 1.625-1.013 1.027-1.604 2.31-1.604 3.85 0 1.453.506 2.736 1.604 3.848 1.097 1.026 2.363 1.625 3.798 1.625zm-1.773-7.184c.506-.514 1.181-.77 1.772-.77.76 0 1.351.342 1.773.77.507.513.76 1.197.76 1.796 0 .77-.338 1.368-.76 1.796-.506.513-1.182.77-1.773.77-.76 0-1.35-.343-1.772-.77a2.625 2.625 0 0 1-.76-1.796c-.085-.77.253-1.369.76-1.796zM51.24 45.928c-1.435 0-2.701.513-3.798 1.625-1.013 1.026-1.604 2.309-1.604 3.848 0 1.454.506 2.737 1.604 3.849 1.013 1.026 2.279 1.625 3.798 1.625 1.435 0 2.702-.513 3.799-1.625 1.013-1.026 1.604-2.31 1.604-3.849 0-1.454-.507-2.737-1.604-3.848-1.097-1.112-2.448-1.625-3.799-1.625zm1.773 7.184c-.507.513-1.182.77-1.773.77-.76 0-1.35-.343-1.772-.77a2.625 2.625 0 0 1-.76-1.796c0-.77.337-1.369.76-1.796.422-.428 1.181-.77 1.772-.77.76 0 1.35.342 1.773.77.506.513.76 1.197.76 1.796 0 .598-.17 1.283-.76 1.796zM51.24 18.645c1.435 0 2.702-.513 3.799-1.625 1.013-1.027 1.604-2.31 1.604-3.849 0-1.454-.507-2.737-1.604-3.849-1.013-1.026-2.28-1.625-3.799-1.625-1.435 0-2.701.514-3.798 1.625-1.013 1.027-1.604 2.31-1.604 3.85 0 1.453.506 2.736 1.604 3.848 1.013 1.026 2.363 1.625 3.798 1.625zm-1.857-7.184c.507-.514 1.182-.77 1.773-.77.59 0 1.35.342 1.773.77.506.513.76 1.197.76 1.796 0 .598-.338 1.368-.76 1.796-.507.513-1.182.77-1.773.77-.76 0-1.35-.343-1.773-.77a2.625 2.625 0 0 1-.76-1.796c0-.6.338-1.369.76-1.796zM13.675 45.928c-1.435 0-2.701.513-3.798 1.625-1.013 1.026-1.604 2.309-1.604 3.848 0 1.454.506 2.737 1.604 3.849 1.013 1.026 2.279 1.625 3.798 1.625 1.435 0 2.702-.513 3.799-1.625 1.013-1.026 1.604-2.31 1.604-3.849 0-1.454-.507-2.737-1.604-3.848-1.097-1.112-2.448-1.625-3.799-1.625zm1.773 7.184c-.506.513-1.097.77-1.773.77-.76 0-1.35-.343-1.772-.77-.422-.428-.845-1.198-.845-1.796 0-.77.338-1.369.76-1.796.422-.428 1.182-.77 1.773-.77.59 0 1.35.342 1.773.77.506.513.76 1.197.76 1.796 0 .598-.17 1.283-.676 1.796zm1.266-22.237c.76 0 1.35.599 1.35 1.368 0 .77-.59 1.369-1.35 1.369H13.76c-.76 0-1.35-.599-1.35-1.369s.59-1.368 1.35-1.368h2.954zm34.442 0c.76 0 1.35.599 1.35 1.368 0 .77-.59 1.369-1.35 1.369H48.2c-.76 0-1.35-.599-1.35-1.369s.59-1.368 1.35-1.368h2.955zm-18.74-18.901c.76 0 1.35.598 1.35 1.368v2.994c0 .77-.59 1.368-1.35 1.368-.76 0-1.351-.599-1.351-1.368v-2.994c0-.684.59-1.368 1.35-1.368zm0 40.625c-.76 0-1.351-.599-1.351-1.369v-2.993c0-.77.59-1.369 1.35-1.369.76 0 1.351.6 1.351 1.369v2.993c0 .684-.59 1.369-1.35 1.369zM18.318 17.96c.169-.172.591-.428.929-.428.337 0 .76.085.928.428l2.448 2.48a1.355 1.355 0 0 1 0 1.881c-.168.171-.59.428-.928.428-.338 0-.76-.086-.929-.428l-2.448-2.48a1.355 1.355 0 0 1 0-1.881zm28.364 28.65c-.253.257-.676.428-.929.428-.337 0-.76-.085-.928-.427l-2.448-2.48a1.355 1.355 0 0 1 0-1.882c.168-.171.59-.428.928-.428.338 0 .76.086.929.428l2.448 2.48c.169.171.422.599.422.941 0 .342-.253.684-.422.94zm-4.474-24.289a1.355 1.355 0 0 1 0-1.881l2.448-2.48c.169-.172.59-.428.928-.428.338 0 .76.085.929.428.169.17.422.598.422.94 0 .342-.084.77-.422.941l-2.448 2.48c-.169.171-.591.428-.929.428-.337 0-.76-.086-.928-.428zM22.623 42.164c.17.172.422.6.422.941 0 .342-.084.77-.422.941l-2.448 2.651c-.169.171-.59.428-.928.428-.338 0-.76-.086-.929-.428-.169-.17-.422-.598-.422-.94 0-.343.085-.77.422-.941l2.448-2.48c.17-.172.591-.428.929-.428.337-.086.76 0 .928.256zm17.728-.342H24.649c-.76 0-1.35-.598-1.35-1.368V26.17c0-.94.506-1.71 1.266-2.224l7.26-4.361a1.281 1.281 0 0 1 1.35 0l7.26 4.447c.76.428 1.266 1.283 1.266 2.224v14.282c0 .685-.59 1.283-1.35 1.283zM26 39.086h13V26.94c0-.428-.253-.855-.59-1.027l-5.32-3.25c-.337-.256-.843-.256-1.265 0l-5.319 3.25c-.337.257-.59.6-.59 1.027v12.145H26zm9.032 2.736h-5.149c-.76 0-1.35-.598-1.35-1.368v-9.921c0-.77.59-1.369 1.35-1.369h5.15c.76 0 1.35.6 1.35 1.369v9.92c0 .77-.59 1.37-1.35 1.37zm-3.798-2.736h2.448V31.9h-2.448v7.185z"/>
</svg>
