<svg xmlns="http://www.w3.org/2000/svg" width="176" height="284" viewBox="0 0 176 284">
    <g fill="#51DDEC" fill-rule="nonzero" opacity=".2">
        <path d="M28 11l107.308 40.34-11.67 19.038L176 103 90.794 76.964l8.779-14.201zM40 245l78.495-43.18 3.723 16.616L161 197l-50.262 46.462-2.792-12zM75.974 166.227H0L106.22 132l-10.014 19.118 38.504-9.867-9.29 16.548 50.58-2.056L105.703 180l3.716-10.792-36.232 4.933zM157.695 263.315l13.305.102L143.133 317l10.057-40.649-15.19 1.232L167.752 224zM138-33l36.672 48.028-14.199 2.272L176 55 141.167 8.315l13.075-3.202zM92-26L120.477.359l-9.15 3.18L125 26 97.86.154l8.121-3.487zM60 90l38.224 6.656-5.96 7.8L116 116l-36.888-7.072 4.83-7.488zM85 297l20.382-35.712 3.5 10.516L127 254l-19.97 33.734-3.81-9.163z"/>
    </g>
</svg>
