<svg xmlns="http://www.w3.org/2000/svg" width="80" height="80" viewBox="0 0 80 80">
    <defs>
        <filter id="b" width="105.9%" height="135.3%" x="-3%" y="-12.3%" filterUnits="objectBoundingBox">
            <feOffset dy="8" in="SourceAlpha" result="shadowOffsetOuter1"/>
            <feGaussianBlur in="shadowOffsetOuter1" result="shadowBlurOuter1" stdDeviation="7.5"/>
            <feColorMatrix in="shadowBlurOuter1" result="shadowMatrixOuter1" values="0 0 0 0 0 0 0 0 0 0 0 0 0 0 0 0 0 0 0.1 0"/>
            <feMerge>
                <feMergeNode in="shadowMatrixOuter1"/>
                <feMergeNode in="SourceGraphic"/>
            </feMerge>
        </filter>
        <linearGradient id="a" x1="50%" x2="50%" y1="100%" y2="0%">
            <stop offset="0%" stop-color="#51C0EC"/>
            <stop offset="100%" stop-color="#2A89F5"/>
        </linearGradient>
    </defs>
    <path fill="url(#a)" fill-rule="nonzero" d="M37.91 0H12.09a2.972 2.972 0 0 0-2.968 2.967v44.066A2.972 2.972 0 0 0 12.09 50h25.814a2.973 2.973 0 0 0 2.967-2.973V2.967A2.966 2.966 0 0 0 37.911 0zm.726 47.033a.7.7 0 0 1-.726.726H12.09a.7.7 0 0 1-.726-.726V2.967a.7.7 0 0 1 .726-.726v-.006h25.814a.7.7 0 0 1 .726.726v44.072h.006zm-5.145-11.926c0-.606-.48-1.086-1.086-1.086h-7.84c-.607 0-1.086.48-1.086 1.086 0 .606.48 1.086 1.085 1.086h7.778c.6.006 1.15-.48 1.15-1.086zm0 6.724c0-.606-.48-1.086-1.086-1.086h-7.84c-.607 0-1.086.48-1.086 1.086 0 .606.48 1.086 1.085 1.086h7.778c.6 0 1.15-.486 1.15-1.086zm0-13.384c0-.606-.48-1.086-1.086-1.086h-7.84c-.607 0-1.086.48-1.086 1.086 0 .606.48 1.086 1.085 1.086h7.778c.6.063 1.15-.417 1.15-1.086zm3.188-13.378c0-.606-.48-1.085-1.086-1.085H10.694c-.606 0-1.085.48-1.085 1.085 0 .607.48 1.086 1.085 1.086h24.83c.606.063 1.155-.416 1.155-1.086zM17.664 30.631l2.784-2.784a1.132 1.132 0 0 0 0-1.572 1.132 1.132 0 0 0-1.572 0l-1.995 1.995-.423-.366a1.132 1.132 0 0 0-1.572 0 1.132 1.132 0 0 0 0 1.572l1.15 1.149c.176.177.48.303.782.303.303.063.606-.057.846-.297zm15.827-8.863c0-.606-.48-1.086-1.086-1.086h-7.84c-.607 0-1.086.48-1.086 1.086 0 .606.48 1.086 1.085 1.086h7.778c.6.063 1.15-.423 1.15-1.086zm-15.827 2.178l2.784-2.784a1.132 1.132 0 0 0 0-1.572 1.132 1.132 0 0 0-1.572 0l-1.995 1.995-.423-.367a1.132 1.132 0 0 0-1.572 0 1.132 1.132 0 0 0 0 1.572l1.15 1.15c.176.176.48.302.782.302.303.07.606-.056.846-.296zm0 13.34l2.784-2.785a1.132 1.132 0 0 0 0-1.572 1.132 1.132 0 0 0-1.572 0l-1.995 1.995-.366-.366a1.132 1.132 0 0 0-1.572 0 1.132 1.132 0 0 0 0 1.572l1.15 1.149c.176.177.479.303.782.303.246.006.55-.114.79-.297zm0 6.66l2.784-2.784a1.132 1.132 0 0 0 0-1.572 1.132 1.132 0 0 0-1.572 0l-1.995 1.995-.423-.367a1.132 1.132 0 0 0-1.572 0 1.132 1.132 0 0 0 0 1.572l1.15 1.15c.24.24.48.302.782.302.303.07.606-.056.846-.296zM9.13 48.15H2.967A2.972 2.972 0 0 1 0 45.183V6.717A2.972 2.972 0 0 1 2.967 3.75H9.13v2.235H2.967v.006a.7.7 0 0 0-.726.726v11.017H9.13v2.171H2.235v25.278a.7.7 0 0 0 .726.726h6.161v2.241h.007zm31.742-2.235h6.162a.7.7 0 0 0 .726-.726V19.905H40.87v-2.171h6.888V6.717a.7.7 0 0 0-.726-.726v-.006H40.87V3.75h6.162A2.972 2.972 0 0 1 50 6.717V45.19a2.972 2.972 0 0 1-2.967 2.968H40.87v-2.242z" filter="url(#b)" transform="translate(15 7)"/>
</svg>
