<svg xmlns="http://www.w3.org/2000/svg" width="79" height="79" viewBox="0 0 79 79">
    <defs>
        <filter id="b" width="105.9%" height="135.3%" x="-3%" y="-12.3%" filterUnits="objectBoundingBox">
            <feOffset dy="8" in="SourceAlpha" result="shadowOffsetOuter1"/>
            <feGaussianBlur in="shadowOffsetOuter1" result="shadowBlurOuter1" stdDeviation="7.5"/>
            <feColorMatrix in="shadowBlurOuter1" result="shadowMatrixOuter1" values="0 0 0 0 0 0 0 0 0 0 0 0 0 0 0 0 0 0 0.1 0"/>
            <feMerge>
                <feMergeNode in="shadowMatrixOuter1"/>
                <feMergeNode in="SourceGraphic"/>
            </feMerge>
        </filter>
        <linearGradient id="a" x1="50%" x2="50%" y1="100%" y2="0%">
            <stop offset="0%" stop-color="#51C0EC"/>
            <stop offset="100%" stop-color="#2A89F5"/>
        </linearGradient>
    </defs>
    <path fill="url(#a)" fill-rule="nonzero" d="M40.77 33.984h-7.692c-1.803 0-3.27 1.49-3.27 3.32 0 1.831 1.467 3.32 3.27 3.32h7.692c1.803 0 3.27-1.489 3.27-3.32 0-1.83-1.467-3.32-3.27-3.32zm0 4.688h-7.692a1.358 1.358 0 0 1-1.347-1.367c0-.754.604-1.368 1.347-1.368h7.692c.742 0 1.346.614 1.346 1.368 0 .754-.604 1.367-1.346 1.367zm3.653-10.938c2.652 0 4.808 2.19 4.808 4.884v9.374c0 2.692-2.156 4.883-4.808 4.883h-.384v2.148a.97.97 0 0 1-.961.977h-7.693a.97.97 0 0 1-.961-.977v-2.148H14.808v2.148a.97.97 0 0 1-.961.977H6.155a.97.97 0 0 1-.962-.977v-2.148H4.81C2.158 46.875 0 44.685 0 41.992v-9.374c0-2.693 2.157-4.884 4.808-4.884h3.653a.97.97 0 0 1 .962.977.97.97 0 0 1-.962.976H4.81c-1.59 0-2.885 1.315-2.885 2.93v9.375c0 1.615 1.294 2.93 2.885 2.93h39.614c1.591 0 2.885-1.315 2.885-2.93v-9.374c0-1.616-1.294-2.93-2.885-2.93H16.54a.97.97 0 0 1-.961-.977c0-.54.43-.977.961-.977h19.423V19.41c0-.54.43-.976.962-.976a.97.97 0 0 1 .961.976v8.325h6.538zM12.885 48.047v-1.172H7.116v1.172h5.77zm29.231 0v-1.172h-5.77v1.172h5.77zM13.301 28.02a.992.992 0 0 1 .281.69.992.992 0 0 1-.281.691.961.961 0 0 1-.68.286.961.961 0 0 1-.68-.286.992.992 0 0 1-.282-.69c0-.257.103-.509.282-.69a.961.961 0 0 1 .68-.287c.253 0 .5.105.68.286zm3.238 5.964c1.803 0 3.27 1.49 3.27 3.32 0 1.831-1.467 3.32-3.27 3.32-1.802 0-3.269-1.489-3.269-3.32 0-1.83 1.467-3.32 3.27-3.32zm0 4.688c.743 0 1.346-.613 1.346-1.367s-.603-1.368-1.346-1.368c-.742 0-1.346.614-1.346 1.368 0 .754.604 1.367 1.346 1.367zm-8.077-4.688c1.803 0 3.27 1.49 3.27 3.32 0 1.831-1.467 3.32-3.27 3.32-1.802 0-3.269-1.489-3.269-3.32 0-1.83 1.467-3.32 3.27-3.32zm0 4.688c.743 0 1.346-.613 1.346-1.367s-.603-1.368-1.346-1.368c-.742 0-1.346.614-1.346 1.368 0 .754.604 1.367 1.346 1.367zm16.154-4.688c1.803 0 3.27 1.49 3.27 3.32 0 1.831-1.467 3.32-3.27 3.32s-3.27-1.489-3.27-3.32c0-1.83 1.467-3.32 3.27-3.32zm0 4.688c.742 0 1.346-.613 1.346-1.367s-.604-1.368-1.346-1.368c-.742 0-1.346.614-1.346 1.368 0 .754.604 1.367 1.346 1.367zM39.78 6.227a4.152 4.152 0 0 1 0 5.8 3.981 3.981 0 0 1-2.855 1.202 3.981 3.981 0 0 1-2.856-1.201 4.152 4.152 0 0 1 0-5.801 3.981 3.981 0 0 1 2.856-1.201c1.079 0 2.093.426 2.855 1.201zm-1.36 4.42c.825-.838.825-2.201 0-3.039-.399-.406-.93-.63-1.495-.63-.565 0-1.096.224-1.496.63a2.175 2.175 0 0 0 0 3.038c.4.406.93.63 1.496.63.565 0 1.096-.224 1.496-.63zm4.08-7.182c3.074 3.122 3.074 8.202 0 11.325a.95.95 0 0 1-1.36 0 .988.988 0 0 1 0-1.381c2.325-2.361 2.325-6.202 0-8.563a.987.987 0 0 1 0-1.381.951.951 0 0 1 1.36 0zm-9.79 1.38c-2.325 2.362-2.325 6.203 0 8.564.375.381.375 1 0 1.38a.95.95 0 0 1-1.36 0c-3.075-3.122-3.075-8.202 0-11.324a.951.951 0 0 1 1.36 0c.375.381.375 1 0 1.38zM45.628.287c4.8 4.875 4.8 12.807 0 17.683a.951.951 0 0 1-1.36 0 .987.987 0 0 1 0-1.382c4.05-4.113 4.05-10.806 0-14.92a.987.987 0 0 1 0-1.381.951.951 0 0 1 1.36 0zm-16.05 16.301c.375.382.375 1 0 1.382a.951.951 0 0 1-1.36 0c-4.8-4.876-4.8-12.808 0-17.683a.951.951 0 0 1 1.36 0c.375.381.375 1 0 1.381-4.051 4.114-4.051 10.807 0 14.92zm8.025-1.286a.992.992 0 0 1 .281.69.992.992 0 0 1-.281.69.961.961 0 0 1-.68.287.961.961 0 0 1-.68-.286.992.992 0 0 1-.282-.69c0-.258.103-.51.282-.691a.961.961 0 0 1 .68-.286c.253 0 .5.104.68.286z" filter="url(#b)" transform="translate(15 6)"/>
</svg>
