<svg xmlns="http://www.w3.org/2000/svg" width="67" height="80" viewBox="0 0 67 80">
    <defs>
        <filter id="a" width="105.9%" height="135.3%" x="-3%" y="-12.3%" filterUnits="objectBoundingBox">
            <feOffset dy="8" in="SourceAlpha" result="shadowOffsetOuter1"/>
            <feGaussianBlur in="shadowOffsetOuter1" result="shadowBlurOuter1" stdDeviation="7.5"/>
            <feColorMatrix in="shadowBlurOuter1" result="shadowMatrixOuter1" values="0 0 0 0 0 0 0 0 0 0 0 0 0 0 0 0 0 0 0.1 0"/>
            <feMerge>
                <feMergeNode in="shadowMatrixOuter1"/>
                <feMergeNode in="SourceGraphic"/>
            </feMerge>
        </filter>
        <linearGradient id="b" x1="50%" x2="50%" y1="100%" y2="0%">
            <stop offset="0%" stop-color="#51C0EC"/>
            <stop offset="100%" stop-color="#2A89F5"/>
        </linearGradient>
    </defs>
    <g fill="none" fill-rule="evenodd" filter="url(#a)" transform="translate(-191 -26)">
        <path d="M199 33h50v50h-50z"/>
        <path fill="url(#b)" fill-rule="nonzero" d="M40.96 50H9.964A2.97 2.97 0 0 1 7 47.035V2.965A2.97 2.97 0 0 1 9.965 0h30.994a2.97 2.97 0 0 1 2.965 2.965v44.064A2.97 2.97 0 0 1 40.96 50zM9.964 2.242a.7.7 0 0 0-.729.729v44.064a.7.7 0 0 0 .729.729h30.994a.7.7 0 0 0 .729-.729V2.965a.7.7 0 0 0-.729-.729H9.965v.006zm26.578 32.866c0-.605-.482-1.087-1.088-1.087h-13.02c-.605 0-1.087.482-1.087 1.087s.482 1.087 1.087 1.087h12.953c.605.006 1.155-.481 1.155-1.087zm0 6.72c0-.605-.482-1.087-1.088-1.087h-13.02c-.605 0-1.087.482-1.087 1.087 0 .606.482 1.088 1.087 1.088h12.953c.605 0 1.155-.482 1.155-1.088zm0-13.378c0-.606-.482-1.088-1.088-1.088h-13.02c-.605 0-1.087.482-1.087 1.088 0 .605.482 1.087 1.087 1.087h12.953c.605.062 1.155-.42 1.155-1.087zm0-6.597c0-.605-.482-1.087-1.088-1.087h-13.02c-.605 0-1.087.482-1.087 1.087s.482 1.087 1.087 1.087h12.953c.605 0 1.155-.482 1.155-1.087zm-.124-6.597c0-.605-.482-1.087-1.087-1.087h-12.89c-.606 0-1.088.482-1.088 1.087s.482 1.087 1.087 1.087h12.891c.605 0 1.087-.482 1.087-1.087zm0-6.658c0-.606-.482-1.088-1.087-1.088h-12.89c-.606 0-1.088.482-1.088 1.088 0 .605.482 1.087 1.087 1.087h12.891c.605.062 1.087-.482 1.087-1.087zm-20.883 1.995l2.786-2.786a1.13 1.13 0 0 0 0-1.574 1.13 1.13 0 0 0-1.575 0l-1.996 2-.364-.364a1.13 1.13 0 0 0-1.575 0 1.13 1.13 0 0 0 0 1.575l1.15 1.149c.24.241.481.303.784.303.246 0 .549-.118.79-.303zm0 6.843l2.786-2.785a1.13 1.13 0 0 0 0-1.575 1.13 1.13 0 0 0-1.575 0L14.75 15.07l-.364-.364a1.13 1.13 0 0 0-1.575 0 1.13 1.13 0 0 0 0 1.575l1.15 1.149c.178.18.481.302.784.302.246.006.549-.117.79-.297zm0 6.597l2.786-2.785a1.13 1.13 0 0 0 0-1.575 1.13 1.13 0 0 0-1.575 0l-1.996 1.995-.364-.364a1.13 1.13 0 0 0-1.575 0 1.13 1.13 0 0 0 0 1.575l1.15 1.149c.178.179.481.302.784.302.246.006.549-.056.79-.297zm0 6.597l2.786-2.786a1.13 1.13 0 0 0 0-1.574 1.13 1.13 0 0 0-1.575 0l-1.996 1.995-.426-.365a1.13 1.13 0 0 0-1.574 0 1.13 1.13 0 0 0 0 1.575l1.148 1.15c.18.179.483.302.785.302.308.067.611-.056.852-.297zm0 6.658l2.786-2.785a1.13 1.13 0 0 0 0-1.575 1.13 1.13 0 0 0-1.575 0l-1.996 1.995-.364-.364a1.13 1.13 0 0 0-1.575 0 1.13 1.13 0 0 0 0 1.575l1.15 1.149c.178.18.481.302.784.302.246.006.549-.117.79-.297zm0 6.659l2.786-2.786a1.13 1.13 0 0 0 0-1.575 1.13 1.13 0 0 0-1.575 0l-1.996 1.996-.426-.365a1.13 1.13 0 0 0-1.574 0 1.13 1.13 0 0 0 0 1.575l1.148 1.15c.241.24.483.302.785.302.308.067.611-.056.852-.297z" transform="translate(199 33)"/>
    </g>
</svg>
