<svg xmlns="http://www.w3.org/2000/svg" width="78" height="70" viewBox="0 0 78 70">
    <defs>
        <filter id="a" width="105.9%" height="135.3%" x="-3%" y="-12.3%" filterUnits="objectBoundingBox">
            <feOffset dy="8" in="SourceAlpha" result="shadowOffsetOuter1"/>
            <feGaussianBlur in="shadowOffsetOuter1" result="shadowBlurOuter1" stdDeviation="7.5"/>
            <feColorMatrix in="shadowBlurOuter1" result="shadowMatrixOuter1" values="0 0 0 0 0 0 0 0 0 0 0 0 0 0 0 0 0 0 0.1 0"/>
            <feMerge>
                <feMergeNode in="shadowMatrixOuter1"/>
                <feMergeNode in="SourceGraphic"/>
            </feMerge>
        </filter>
        <linearGradient id="b" x1="50%" x2="50%" y1="100%" y2="0%">
            <stop offset="0%" stop-color="#51C0EC"/>
            <stop offset="100%" stop-color="#2A89F5"/>
        </linearGradient>
    </defs>
    <g fill="none" fill-rule="evenodd" filter="url(#a)" transform="translate(-632 -32)">
        <path d="M646 35h50v50h-50z"/>
        <path fill="url(#b)" fill-rule="nonzero" d="M24.854 45.082a3.216 3.216 0 1 1 0-6.433 3.216 3.216 0 0 1 0 6.433zm24.525-30.374a1.95 1.95 0 0 1-2.852 2.658c-5.66-6.074-13.323-9.419-21.575-9.419-8.253 0-15.916 3.345-21.577 9.42a1.95 1.95 0 0 1-2.852-2.659C6.93 7.834 15.605 4.048 24.951 4.048c9.347 0 18.022 3.786 24.428 10.66zm-7.157 8.05a1.95 1.95 0 0 1-2.768 2.746c-3.998-4.028-9.148-6.246-14.503-6.246-5.356 0-10.507 2.218-14.503 6.246a1.95 1.95 0 1 1-2.768-2.746c4.735-4.77 10.868-7.399 17.271-7.399 6.402 0 12.535 2.628 17.27 7.4zm-7.802 8.074a1.95 1.95 0 1 1-2.744 2.77c-1.805-1.79-4.452-2.945-6.743-2.945h-.142-.001c-2.292 0-4.939 1.155-6.744 2.944-.38.377-.876.565-1.372.565a1.95 1.95 0 0 1-1.372-3.334c2.536-2.513 6.171-4.074 9.488-4.074H24.933c3.316 0 6.951 1.561 9.487 4.074z" transform="translate(646 35)"/>
    </g>
</svg>
