<svg xmlns="http://www.w3.org/2000/svg" width="71" height="71" viewBox="0 0 71 71">
    <defs>
        <filter id="a" width="105.9%" height="135.3%" x="-3%" y="-12.3%" filterUnits="objectBoundingBox">
            <feOffset dy="8" in="SourceAlpha" result="shadowOffsetOuter1"/>
            <feGaussianBlur in="shadowOffsetOuter1" result="shadowBlurOuter1" stdDeviation="7.5"/>
            <feColorMatrix in="shadowBlurOuter1" result="shadowMatrixOuter1" values="0 0 0 0 0 0 0 0 0 0 0 0 0 0 0 0 0 0 0.1 0"/>
            <feMerge>
                <feMergeNode in="shadowMatrixOuter1"/>
                <feMergeNode in="SourceGraphic"/>
            </feMerge>
        </filter>
        <linearGradient id="b" x1="50%" x2="50%" y1="100%" y2="0%">
            <stop offset="0%" stop-color="#51C0EC"/>
            <stop offset="100%" stop-color="#2A89F5"/>
        </linearGradient>
    </defs>
    <g fill="none" fill-rule="evenodd" filter="url(#a)" transform="translate(-486 -31)">
        <path d="M497 33h50v50h-50z"/>
        <path fill="url(#b)" fill-rule="nonzero" d="M33.18 26.007c-.86-.895-1.897-1.374-2.995-1.374-1.09 0-2.136.47-3.03 1.365l-2.8 2.791c-.231-.124-.461-.24-.683-.354-.319-.16-.62-.31-.877-.47-2.623-1.666-5.006-3.837-7.293-6.645-1.107-1.4-1.851-2.579-2.392-3.775.727-.665 1.4-1.356 2.056-2.02.248-.249.496-.505.744-.754 1.86-1.86 1.86-4.27 0-6.131l-2.419-2.42a36.917 36.917 0 0 1-.824-.841 41.837 41.837 0 0 0-1.666-1.648c-.86-.85-1.887-1.303-2.968-1.303S5.906 2.88 5.02 3.731l-.018.018L1.99 6.788a6.483 6.483 0 0 0-1.923 4.12c-.213 2.587.55 4.998 1.134 6.575 1.436 3.872 3.58 7.46 6.779 11.306 3.88 4.634 8.55 8.294 13.884 10.872 2.038.966 4.759 2.11 7.798 2.304.186.009.38.018.558.018 2.047 0 3.766-.736 5.113-2.198.009-.017.026-.026.035-.044.461-.558.993-1.063 1.55-1.604.382-.363.772-.744 1.153-1.143.877-.912 1.338-1.976 1.338-3.066 0-1.098-.47-2.153-1.365-3.039l-4.864-4.882zm3.172 9.33c-.01 0-.01.01 0 0-.346.372-.7.71-1.081 1.081-.576.55-1.161 1.126-1.71 1.772-.895.957-1.95 1.41-3.332 1.41-.133 0-.275 0-.408-.01-2.631-.168-5.077-1.196-6.911-2.073-5.015-2.428-9.419-5.875-13.078-10.243-3.022-3.642-5.042-7.009-6.38-10.624-.824-2.206-1.126-3.925-.993-5.547a4.068 4.068 0 0 1 1.223-2.632L6.704 5.45c.434-.408.895-.63 1.347-.63.558 0 1.01.337 1.293.621l.027.027c.54.505 1.054 1.027 1.595 1.586.274.283.558.567.841.86l2.42 2.418c.939.94.939 1.808 0 2.747-.257.257-.506.514-.763.762a46.249 46.249 0 0 1-2.224 2.162c-.017.018-.035.027-.044.044-.762.762-.62 1.507-.46 2.012l.026.08c.629 1.524 1.515 2.959 2.862 4.67l.009.008c2.445 3.013 5.024 5.36 7.868 7.16.363.23.736.416 1.09.593.319.16.62.31.877.47.036.017.071.044.107.062.3.15.584.221.877.221.735 0 1.196-.46 1.347-.611l3.03-3.03c.301-.302.78-.665 1.338-.665.55 0 1.001.346 1.276.647l.018.018 4.882 4.882c.913.904.913 1.834.009 2.773zM22.689 9.987a1.183 1.183 0 0 1-.966-1.383 1.202 1.202 0 0 1 1.382-.974 13.667 13.667 0 0 1 7.399 3.836 13.667 13.667 0 0 1 3.836 7.4 1.197 1.197 0 0 1-.983 1.381 1.189 1.189 0 0 1-1.382-.975 11.295 11.295 0 0 0-3.173-6.113c-1.683-1.684-3.792-2.783-6.113-3.172zm19.245 8.533a1.174 1.174 0 0 1-.975 1.364c-.07.009-.133.018-.203.018a1.189 1.189 0 0 1-1.179-.993c-.7-4.129-2.65-7.895-5.644-10.89-2.995-2.986-6.76-4.944-10.89-5.644a1.202 1.202 0 0 1-.984-1.382 1.192 1.192 0 0 1 1.374-.975c4.625.789 8.834 2.969 12.183 6.318 3.35 3.35 5.53 7.558 6.318 12.184z" transform="translate(501 37)"/>
    </g>
</svg>
