<svg xmlns="http://www.w3.org/2000/svg" width="64" height="64" viewBox="0 0 64 64">
    <defs>
        <linearGradient id="a" x1="49.994%" x2="49.994%" y1="99.987%" y2="0%">
            <stop offset="0%" stop-color="#F5515F"/>
            <stop offset="100%" stop-color="#D0021B"/>
        </linearGradient>
    </defs>
    <g fill="none" fill-rule="nonzero">
        <path fill="url(#a)" d="M57.263 63.663H6.4c-3.593 0-6.4-2.807-6.4-6.4V6.4C0 2.807 2.807 0 6.4 0h50.863c3.48 0 6.4 2.807 6.4 6.4v50.863c0 3.593-2.807 6.4-6.4 6.4z"/>
        <path fill="#000" d="M1.684 61.642a6.272 6.272 0 0 0 4.604 2.021h50.975c1.797 0 3.48-.786 4.604-2.02H1.684z" opacity=".2"/>
        <path fill="#FFF" d="M39.972 50.975c4.716 0 7.523-2.357 8.646-3.368l1.347-1.123c.674-.561 1.01-1.123 1.01-1.572 0-.898-.898-2.02-2.582-3.368l-1.572-1.235c-1.909-1.46-3.256-2.134-4.491-2.134-.786 0-1.46.225-2.246.899l-1.572 1.235-.337.337c-.561.673-1.684 1.684-3.48 1.684-2.358 0-5.165-1.797-8.646-5.614-3.48-3.705-5.053-6.625-4.716-8.758.225-1.684 1.572-2.47 2.358-2.92.113-.112.337-.224.337-.224l1.572-1.235c1.796-1.46 1.684-3.256-.45-6.288l-1.122-1.572c-1.347-2.02-2.47-2.919-3.48-2.919-.45 0-1.011.225-1.685.674l-1.46 1.122c-1.235.786-4.042 3.144-4.715 7.411-.674 5.39 2.133 11.677 8.645 18.639 6.4 6.849 12.576 10.33 18.527 10.33h.112z"/>
    </g>
</svg>
