<svg xmlns="http://www.w3.org/2000/svg" width="84" height="90" viewBox="0 0 84 90">
    <path fill="#3894FF" fill-rule="nonzero" d="M43.347 89.082c-11.388 0-20.571-9.184-20.571-20.572v-27H20.57C9.184 41.51 0 32.327 0 20.755 0 9.184 9.184 0 20.571 0h36c11.572 0 21.123 9.367 21.123 20.755 0 8.633-5.327 16.163-13.408 19.47l-.184.183v16.53l9.551-4.775c1.286-.55 2.755-.918 4.225-.918 3.122 0 5.693 2.571 5.693 5.694 0 1.47-.55 2.939-1.653 4.04L60.612 81.92c-4.592 4.591-10.653 7.163-17.265 7.163zm-14.51-51.613a3.684 3.684 0 0 0-3.674 3.674V68.51a18.108 18.108 0 0 0 18.184 18.184c5.877 0 11.571-2.388 15.612-6.429l20.939-20.938c.551-.551.918-1.47.918-2.388a3.292 3.292 0 0 0-3.306-3.306c-1.102 0-2.204.183-3.122.734l-11.204 5.51c-.184 0-.368.184-.551.184-.184 0-.368 0-.551-.183-.368-.184-.551-.551-.551-1.102V20.388a3.684 3.684 0 0 0-3.674-3.674 3.684 3.684 0 0 0-3.673 3.674v28.836c0 .735-.551 1.103-1.102 1.103-.735 0-1.102-.551-1.102-1.103v-14.51a3.684 3.684 0 0 0-3.674-3.673 3.684 3.684 0 0 0-3.673 3.673v14.51c0 .735-.551 1.103-1.102 1.103-.735 0-1.102-.551-1.102-1.103V38.02a3.684 3.684 0 0 0-3.674-3.673 3.684 3.684 0 0 0-3.673 3.673v11.204c0 .735-.551 1.103-1.286 1.103s-1.102-.551-1.102-1.103v-8.081c-.184-2.02-1.837-3.674-3.857-3.674zM20.57 2.388c-10.102 0-18.183 8.265-18.183 18.55 0 10.286 8.265 18.552 18.183 18.552h2.572l.184-.184c.918-2.388 3.122-4.04 5.693-4.04 1.286 0 2.388.367 3.307 1.101l.367.368.184-.551c.918-2.388 3.122-4.041 5.693-4.041 1.286 0 2.388.367 3.307 1.102l.367-.184.184-.55c.367-1.287 1.285-2.205 2.387-2.94l.368-.183L45 29.02a14.663 14.663 0 0 1-2.571-8.265c0-8.082 6.428-14.51 14.326-14.51 8.082 0 14.694 6.428 14.694 14.51 0 5.143-2.755 9.918-7.163 12.49l-.184.184v4.408l.551-.368c6.612-3.122 10.837-9.734 10.837-16.714 0-10.102-8.633-18.55-18.735-18.55H20.571v.183zm37.286 11.939c3.306 0 6.061 2.755 6.061 6.06v10.286l.735-.55c2.755-2.388 4.408-5.694 4.408-9.184 0-6.612-5.694-12.123-12.306-12.123-6.612 0-12.122 5.51-12.122 12.123 0 2.755.918 5.51 2.755 7.714l.183.184h.735c1.102 0 2.02.367 2.939.734l.55.368V20.57c0-3.49 2.756-6.244 6.062-6.244z"/>
</svg>
